<?xml version="1.0" encoding="UTF-8"?>
<svg width="94px" height="90px" viewBox="0 0 94 90" version="1.1" xmlns="http://www.w3.org/2000/svg" xmlns:xlink="http://www.w3.org/1999/xlink">
    <!-- Generator: Sketch 51.3 (57544) - http://www.bohemiancoding.com/sketch -->
    <title>Binance 20 - invert</title>
    <desc>Created with Sketch.</desc>
    <defs></defs>
    <g id="Binance-20---invert" stroke="none" stroke-width="1" fill="none" fill-rule="evenodd">
        <g id="binance-coin-logo-svg-vector" transform="translate(2.000000, 0.000000)" fill-rule="nonzero">
            <path d="M27.5077961,37.8 L44.9770615,20.3311844 L62.4553223,37.8089955 L72.6202399,27.644078 L44.9770615,0 L17.3433283,27.6350825 L27.5077961,37.8 Z M0.000269865067,44.9761169 L10.1655022,34.8108846 L20.33006,44.9754873 L10.1649175,55.1406297 L0.000269865067,44.9761169 Z M27.5077961,52.1550225 L44.9770615,69.6238381 L62.4548726,52.1464768 L72.6251874,62.305997 L72.6202399,62.3113943 L44.9770615,89.9550225 L17.3424288,62.3208396 L17.328036,62.3064468 L27.5077961,52.1550225 Z M69.6257721,44.9816942 L79.7910045,34.8165067 L89.9555622,44.9810645 L79.7903748,55.1462969 L69.6257721,44.9816942 Z" id="Shape" fill="#F3BA2F"></path>
            <path d="M27,45.9 L27,43.2 L40.5,43.2 L40.5,40.5 L27,40.5 L27,37.8 L43.2,37.8 L43.2,40.5 L43.2,43.2 L43.2,45.9 L29.7,45.9 L29.7,49.5 L43.2,49.5 L43.2,52.2 L27,52.2 L27,49.5 L27,45.9 Z" id="Combined-Shape" fill="#83B92C"></path>
            <path d="M49.5,40.5 L49.5,49.5 L60.3,49.5 L60.3,40.5 L49.5,40.5 Z M46.8,37.8 L63,37.8 L63,52.2 L46.8,52.2 L46.8,37.8 Z" id="Rectangle-2-Copy-3" fill="#83B92C"></path>
        </g>
    </g>
</svg>