<?xml version="1.0" encoding="UTF-8"?>
<svg width="70px" height="40px" viewBox="0 0 70 40" version="1.1" xmlns="http://www.w3.org/2000/svg" xmlns:xlink="http://www.w3.org/1999/xlink">
    <!-- Generator: Sketch 53.2 (72643) - https://sketchapp.com -->
    <title>logo / products / daneel t10_color</title>
    <desc>Created with Sketch.</desc>
    <defs>
        <polygon id="path-1" points="0 0.0159800235 29.9786193 0.0159800235 29.9786193 35.8166863 0 35.8166863"></polygon>
    </defs>
    <g id="logo-/-products-/-daneel-t10_color" stroke="none" stroke-width="1" fill="none" fill-rule="evenodd">
        <g id="Group-10" transform="translate(20.000000, 2.000000)">
            <g id="Group-3" transform="translate(0.000000, 0.019389)">
                <mask id="mask-2" fill="white">
                    <use xlink:href="#path-1"></use>
                </mask>
                <g id="Clip-2"></g>
                <path d="M26.3254935,24.812302 C28.6015452,22.1836886 29.9786193,18.7552985 29.9786193,15.0052985 C29.9786193,6.72695535 23.2676792,0.0159800235 14.9893008,0.0159800235 C6.7109577,0.0159800235 -1.7626322e-05,6.72695535 -1.7626322e-05,15.0052985 C-1.7626322e-05,23.2836769 6.7109577,29.9946169 14.9893008,29.9946169 C15.1002761,29.9946169 15.2108989,29.9931716 15.321275,29.9907391 L15.321275,35.8166968 C15.321275,35.8166968 21.1735311,30.286262 25.5670682,25.625369 C25.8228261,25.3706334 26.0694183,25.1067673 26.3063866,24.8341586 C26.3070564,24.8334536 26.3077615,24.832678 26.3084313,24.8319377 C26.3140012,24.8263325 26.3197121,24.8196345 26.3254935,24.812302" id="Fill-1" fill="#0140DA" mask="url(#mask-2)"></path>
            </g>
            <path d="M9.71383784,17.9039929 C10.0152127,17.9039929 10.3769048,17.838141 10.798879,17.7062256 L10.798879,18.9890341 C10.369396,19.181161 9.84187544,19.2772597 9.21652879,19.2772597 C8.52705758,19.2772597 8.02498942,19.1030764 7.71046533,18.7545335 C7.39587074,18.4060964 7.2386087,17.8833349 7.2386087,17.1863196 L7.2386087,14.1402444 L6.41352056,14.1402444 L6.41352056,13.411255 L7.36290952,12.834839 L7.86021857,11.5011257 L8.96221622,11.5011257 L8.96221622,12.8461199 L10.7310529,12.8461199 L10.7310529,14.1402444 L8.96221622,14.1402444 L8.96221622,17.1863196 C8.96221622,17.431255 9.03092362,17.6121011 9.16851469,17.7288226 C9.306,17.8456498 9.48779788,17.9039929 9.71383784,17.9039929" id="Fill-4" fill="#FFFFFF"></path>
            <path d="M15.7889471,19.1642432 L14.0427074,19.1642432 L14.0427074,14.3832797 C14.0427074,14.2853478 14.0435887,14.1676392 14.0455276,14.0300482 C14.047396,13.8925981 14.0512033,13.7494371 14.0568437,13.6006005 C14.0624841,13.4517991 14.0681598,13.3020458 14.0738002,13.1513055 C14.0794407,13.0006357 14.0841293,12.8630799 14.0879365,12.7387438 C14.0690059,12.761376 14.037067,12.7952538 13.9918378,12.840483 C13.9466439,12.8856769 13.8957744,12.9356651 13.8392644,12.9902362 C13.7827544,13.044913 13.7243055,13.100436 13.664094,13.1569459 C13.6037767,13.2134559 13.5453984,13.2643255 13.4888884,13.3095546 L12.5394642,14.0724219 L11.6917791,13.021329 L14.35353,10.9021163 L15.7889471,10.9021163 L15.7889471,19.1642432 Z" id="Fill-6" fill="#FFFFFF"></path>
            <path d="M19.6431187,15.0331763 C19.6431187,15.9750917 19.724094,16.6833525 19.8861152,17.1580294 C20.0480658,17.6327415 20.3287826,17.8701328 20.7281598,17.8701328 C21.1199577,17.8701328 21.4015558,17.6346804 21.5730247,17.1637051 C21.744423,16.692765 21.8301575,15.9826005 21.8301575,15.0331763 C21.8301575,14.0875593 21.744423,13.3764783 21.5730247,12.899792 C21.4015558,12.4232468 21.1199577,12.1849389 20.7281598,12.1849389 C20.5284183,12.1849389 20.3598754,12.2452562 20.2223901,12.365785 C20.0847991,12.4863843 19.9727662,12.6652914 19.8861152,12.9026122 C19.7994289,13.1400035 19.7372432,13.4366898 19.6996287,13.7927062 C19.6619436,14.1487579 19.6431187,14.5622714 19.6431187,15.0331763 M23.5650811,15.0331763 C23.5650811,15.7000153 23.5132597,16.2953619 23.4096874,16.8189694 C23.3060094,17.3426827 23.1402867,17.7872891 22.9123784,18.1526475 C22.6843995,18.5181116 22.3905335,18.7969248 22.0307803,18.9890517 C21.6709565,19.1811786 21.236785,19.2772773 20.7281598,19.2772773 C20.2496757,19.2772773 19.833342,19.1811786 19.4792291,18.9890517 C19.1250458,18.7969248 18.8311798,18.5181116 18.597631,18.1526475 C18.3639765,17.7872891 18.1897579,17.3426827 18.0749048,16.8189694 C17.9599107,16.2953619 17.9025194,15.7000153 17.9025194,15.0331763 C17.9025194,14.3663373 17.9542703,13.769228 18.0579483,13.2417427 C18.1615206,12.7142926 18.3263619,12.2678531 18.5524371,11.9023537 C18.7784771,11.53696 19.0704042,11.2572656 19.4283596,11.0631645 C19.7862444,10.8691692 20.2195347,10.7721187 20.7281598,10.7721187 C21.2028719,10.7721187 21.6172667,10.8682174 21.9714148,11.0603443 C22.3255276,11.2524712 22.6213325,11.5313196 22.8586886,11.8967133 C23.0960447,12.2621774 23.2730834,12.7086522 23.3899107,13.236067 C23.5066322,13.7635523 23.5650811,14.3626357 23.5650811,15.0331763" id="Fill-8" fill="#FFFFFF"></path>
        </g>
    </g>
</svg>