<?xml version="1.0" encoding="UTF-8"?>
<svg width="70px" height="40px" viewBox="0 0 70 40" version="1.1" xmlns="http://www.w3.org/2000/svg" xmlns:xlink="http://www.w3.org/1999/xlink">
    <!-- Generator: Sketch 52.4 (67378) - http://www.bohemiancoding.com/sketch -->
    <title>logo / bmxieth/white</title>
    <desc>Created with Sketch.</desc>
    <g id="logo-/-bmxieth/white" stroke="none" stroke-width="1" fill="none" fill-rule="evenodd">
        <g id="Group" transform="translate(26.000000, 5.000000)" fill="#FFFFFF" fill-rule="nonzero">
            <polygon id="Path-94" opacity="0.5" points="9 -1.0658141e-14 -1.70530257e-13 15 9 20.25 18 15"></polygon>
            <polygon id="Path-94" points="9 9.75 -1.70530257e-13 15 9 20.25 18 15"></polygon>
            <polygon id="Path-94" points="9 22.5 -1.70530257e-13 17.25 9 30 18 17.25"></polygon>
        </g>
        <path d="M21,11 L21,27" id="Path-95" stroke="#F06E6E" stroke-width="2" fill-rule="nonzero" transform="translate(21.000000, 19.000000) scale(-1, 1) translate(-21.000000, -19.000000) "></path>
        <polyline id="Path-98" stroke="#F06E6E" stroke-width="2" fill-rule="nonzero" transform="translate(20.998060, 26.500000) scale(1, -1) translate(-20.998060, -26.500000) " points="17.99512 28 21 25 24.001 28"></polyline>
        <path d="M49,13 L49,29" id="Path-95" stroke="#00B865" stroke-width="2" fill-rule="nonzero" transform="translate(49.000000, 21.000000) scale(-1, 1) translate(-49.000000, -21.000000) "></path>
        <polyline id="Path-98" stroke="#00B865" stroke-width="2" fill-rule="nonzero" points="45.99512 15 49 12 52.001 15"></polyline>
    </g>
</svg>