<?xml version="1.0" encoding="UTF-8"?>
<svg width="70px" height="40px" viewBox="0 0 70 40" version="1.1" xmlns="http://www.w3.org/2000/svg" xmlns:xlink="http://www.w3.org/1999/xlink">
    <!-- Generator: Sketch 53.2 (72643) - https://sketchapp.com -->
    <title>logo / lyft/color</title>
    <desc>Created with Sketch.</desc>
    <g id="logo-/-lyft/color" stroke="none" stroke-width="1" fill="none" fill-rule="evenodd">
        <path d="M30.5,20.6400295 L30.5,12.5000295 L36.5,12.5000295 L36.5,26.0000295 C36.5,28.5150295 35.625,30.6000295 33.97,32.0250295 C32.495,33.3000295 30.45,34.0000295 28.21,34.0000295 C26.795,34.0000295 25.33,33.7150295 23.995,33.1750295 L23.995,27.8450295 C24.195,27.9600295 24.355,28.0350295 24.355,28.0350295 C25.24,28.4600295 26.215,28.6850295 27.175,28.6850295 C28.105,28.6850295 28.935,28.4750295 29.57,28.0750295 C30.25,27.6500295 30.655,27.0400295 30.75,26.3000295 C29.845,27.0750295 28.69,27.5000295 27.5,27.5000295 C24.745,27.5000295 22.5,25.2550295 22.5,22.5000295 L22.5,12.5000295 L28.5,12.5000295 L28.5,20.5000295 C28.5,21.2650295 29.37,21.8350295 30.175,21.2700295 C30.38,21.1300295 30.5,20.8900295 30.5,20.6400295 Z M21,22.5000295 C21,24.1200295 21.52,25.5400295 22.48,26.6350295 C22.545,26.7050295 22.695,26.8650295 22.695,26.8650295 C22.695,26.8650295 22.535,26.9650295 22.435,27.0100295 C21.76,27.3250295 21.005,27.5000295 20.25,27.5000295 C17.72,27.5000295 15,25.6200295 15,21.5000295 L15,6.50002952 L21,6.50002952 L21,22.5000295 Z M56,18.5000295 L53.995,18.5000295 L53.995,19.5000295 C53.995,20.5950295 54.875,21.4950295 55.995,21.5000295 L55.995,27.0000295 L55.995,27.2500295 L55.995,27.5000295 L55.75,27.5000295 C55.745,27.5000295 55.745,27.5000295 55.745,27.5000295 C55.745,27.5000295 55.74,27.5000295 55.74,27.5000295 C53.665,27.4350295 51.735,26.6150295 50.31,25.1900295 C48.82,23.6950295 48,21.6750295 48,19.5000295 L48,14.0000295 C48,12.5450295 46.435,11.4450295 44.9,12.3000295 C44.34,12.6100295 44,13.2100295 44,13.8500295 L44,15.5000295 L46.5,15.5000295 L46.5,21.5050295 L44,21.5050295 C44,23.0600295 43.405,24.5350295 42.325,25.6600295 C41.25,26.7800295 39.805,27.4350295 38.26,27.5000295 C38.255,27.5000295 38.255,27.5000295 38.25,27.5000295 C38.245,27.5000295 38.245,27.5000295 38.24,27.5000295 L38,27.5000295 L38,27.2500295 L38,27.1600295 L38,13.8650295 C38,10.9000295 40.255,7.58502952 43.03,6.55002952 C48.01,4.68502952 52.965,7.78502952 53.86,12.5000295 L56,12.5000295 L56,18.5000295 Z" id="Combined-Shape" fill="#FF00BF" fill-rule="nonzero"></path>
    </g>
</svg>