<svg xmlns="http://www.w3.org/2000/svg" width="70" height="40" viewBox="0 0 70 40">
    <g fill="none" fill-rule="evenodd">
        <path fill="none" d="M0 0h70v40H0z"/>
        <path fill="#FFF" fill-rule="nonzero" d="M14.13 14.624a20.916 20.916 0 0 1 19.113-2.532c-6.157-2.848-13.582-2.452-19.567 1.71-5.498 3.828-8.475 9.952-8.569 16.202.611-5.981 3.713-11.678 9.024-15.38z"/>
        <path fill="#FFF" d="M22.222 21.171v.332h2.475v-.332l-.439-.221v-2.358h2.162a5.1 5.1 0 0 0 1.426-.19c.438-.11.814-.3 1.128-.538.313-.253.564-.538.736-.902.172-.363.266-.775.266-1.234 0-.934-.297-1.614-.877-2.057-.596-.427-1.426-.648-2.538-.648h-4.34v.332l.424.221v7.374l-.423.221zm5.076-4.16c-.235.047-.485.078-.752.078h-2.303v-2.626h2.303c.267 0 .517.016.752.063.235.048.439.127.61.222.173.095.314.237.408.395.094.174.141.364.141.602 0 .237-.047.443-.14.617-.11.174-.236.3-.408.41-.172.112-.376.19-.611.238zM34.524 15.185h-3.79v.317l.297.222v5.22l-.298.223v.332h2.006v-.332l-.33-.222V19.33h1.943l1.081 1.614-.157.221v.333h2.225v-.332l-.438-.222-1.41-1.93c.36-.159.642-.38.861-.68.22-.286.329-.65.329-1.077 0-.649-.204-1.155-.611-1.519-.407-.364-.971-.554-1.708-.554zm-2.122 2.91V16.4h1.911c.345 0 .627.064.846.206a.7.7 0 0 1 .344.633.74.74 0 0 1-.344.649c-.235.142-.501.205-.846.205h-1.911z"/>
        <path fill="#FFF" fill-rule="nonzero" d="M38.35 21.505v-.332l.313-.222V15.73l-.313-.222v-.332h1.99v.332l-.298.222v5.221l.297.222v.332zM41.42 21.505v-.332l.314-.222V15.73l-.313-.222v-.332h1.895l2.24 4.351 2.24-4.351h1.896v.332l-.297.222v5.221l.297.222v.332H47.75v-.332l.313-.222v-3.48l-2.083 4.018h-.846l-2.068-4.019v3.481l.297.222v.332zM50.835 15.185h5.499v1.71h-.345l-.157-.475h-3.29v1.234h2.836l.157-.317h.329v1.773h-.33l-.156-.301h-2.836v1.44h3.369l.172-.49h.329v1.771h-5.577v-.332l.313-.221v-5.222l-.313-.221zM9.326 29.92v-.332l.423-.222v-7.373l-.423-.221v-.317h2.381l3.196 6.218 3.196-6.218h2.413v.332l-.44.222v7.357l.44.222v.332h-2.397v-.332l.438-.222V23.86l-3.133 6.044h-.987l-3.117-6.044v5.506l.423.222v.332zM21.636 23.604h5.498v1.708h-.344l-.157-.474h-3.29v1.234h2.836l.156-.317h.33v1.773h-.33l-.156-.301h-2.851v1.44h3.383l.173-.49h.329v1.771h-5.577v-.332l.313-.221v-5.222l-.313-.221z"/>
        <path fill="#FFF" d="M32.005 23.604h-3.791v.316l.298.222v5.22l-.298.223v.332h2.005v-.333l-.329-.221v-1.614h1.942l1.082 1.614-.157.221v.333h2.224v-.333l-.438-.221-1.41-1.93c.36-.159.642-.38.862-.68.219-.286.329-.65.329-1.077 0-.649-.204-1.155-.612-1.519-.407-.363-.97-.553-1.707-.553zm-2.127 2.928v-1.693h1.911c.345 0 .627.063.846.205a.7.7 0 0 1 .345.633.74.74 0 0 1-.345.65c-.235.142-.501.205-.846.205h-1.911z"/>
        <path fill="#FFF" fill-rule="nonzero" d="M35.83 29.918v-.332l.313-.222v-5.221l-.313-.222v-.332h1.99v.332l-.298.222v5.221l.298.222v.332z"/>
        <path fill="#FFF" d="M42.098 23.604h-3.211v.316l.298.222v5.22l-.298.223v.332h3.211c.564 0 1.081-.064 1.55-.222.471-.158.863-.364 1.192-.649a2.88 2.88 0 0 0 .751-.996c.173-.396.267-.823.267-1.282 0-.459-.063-.886-.22-1.266a2.71 2.71 0 0 0-.689-.997 3.277 3.277 0 0 0-1.175-.664c-.485-.158-1.034-.238-1.676-.238zm-1.536 5.033v-3.813h1.55c.392 0 .737.048 1.035.143.281.11.532.237.72.427.204.19.344.396.439.633.093.237.14.49.14.76 0 .284-.047.537-.156.759-.11.221-.267.411-.47.585a2.485 2.485 0 0 1-.736.38c-.282.079-.611.126-.972.126h-1.55z"/>
        <path fill="#FFF" fill-rule="nonzero" d="M46.763 29.918v-.332l.313-.222v-5.221l-.313-.222v-.332h1.99v.332l-.298.222v5.221l.297.222v.332z"/>
        <path fill="#FFF" d="M57.007 29.363l-3.023-5.76h-1.285l-2.96 5.76-.408.206v.348h2.1V29.6l-.189-.221.549-.965h3.195l.423.965-.22.221v.317h2.241v-.333l-.423-.221zm-4.683-2.123l1.003-2.089 1.003 2.089h-2.006z"/>
        <path fill="#FFF" fill-rule="nonzero" d="M58.09 29.918v-.332l.314-.222v-5.221l-.313-.222v-.332h1.598l3.65 4.272v-3.718l-.298-.222v-.332H65v.332l-.297.222v5.76h-1.473l-3.462-4.099v3.56l.298.222v.332zM14.023 14.365a20.916 20.916 0 0 1 19.112-2.531C26.98 8.985 19.553 9.38 13.57 13.542 8.07 17.372 5.094 23.495 5 29.745c.611-5.997 3.713-11.693 9.023-15.38z"/>
    </g>
</svg>
