<svg xmlns="http://www.w3.org/2000/svg" width="70" height="40" viewBox="0 0 70 40">
    <g fill="none" fill-rule="evenodd">
        <path fill-rule="nonzero" d="M0 0h70v40H0z"/>
        <g fill="#FFF">
            <path d="M45.995 9h5.006a3 3 0 0 1 0 6h-3.006v4h-2V9zm2 4h3.006a1 1 0 0 0 0-2h-3.006v2zm6 8h-8v2H49v8h2v-8h2.995v-2zM59 15.326l-2.085-2.02a3 3 0 0 1-.913-2.154V9h2v2.153a1 1 0 0 0 .304.718L60 13.511l1.697-1.64a.998.998 0 0 0 .305-.72V9h2v2.152a3 3 0 0 1-.915 2.157L61 15.326v3.676h-2v-3.675zm-2.998 15.672V21h8v2h-6v1.999h5v2h-5V31h-2zM44 21h-8v2h8v-2zM44 29h-8v2h8v-2zm-8-4.002h8v2h-8v-2zM42 9v2h-3.5a.5.5 0 0 0-.5.5v.059a1 1 0 0 0 .684.948l3.265 1.088A3 3 0 0 1 44 16.441v.059a2.5 2.5 0 0 1-2.5 2.5H36v-2h5.5a.5.5 0 0 0 .5-.5v-.059a1 1 0 0 0-.684-.948l-3.265-1.089A3 3 0 0 1 36 11.56V11.5A2.5 2.5 0 0 1 38.5 9H42zM8 9h20V31H6V9h2zm18 20v-2.002H8V29h18zm0-4.002v-1.999H8v1.999h18zm0-3.999v-1.998L18 19H8v2h18zM26 17v-1.996h-8V17h8zm0-3.996V11h-8v2.004h8zM16 17H8v-6h8v6z"/>
        </g>
    </g>
</svg>
