<svg xmlns="http://www.w3.org/2000/svg" width="70" height="40" viewBox="0 0 70 40">
    <g fill="none" fill-rule="evenodd">
        <path fill="#00B7CA" d="M34.8 36.92l14.823-10.726L43.961 8.84H25.639l-5.662 17.354z"/>
        <g fill="#FFF">
            <path d="M39 17.19a2.693 2.693 0 0 1 2.694 2.686v4.854A2.693 2.693 0 0 1 39 27.417h-.568v-1.86H39a.83.83 0 0 0 .83-.827v-4.854l-.001-.033-.008.033a.83.83 0 0 0-.83-.827h-2.07a.83.83 0 0 0-.83.827v4.854a.83.83 0 0 0 .83.827h.568v1.86h-.568a2.693 2.693 0 0 1-2.694-2.687v-4.854a2.693 2.693 0 0 1 2.694-2.686H39z"/>
            <path d="M31.438 19.702h-.001v-.316a.6.6 0 0 0-.678-.595l-8.272 1.079 3.979 3.868.268.823-1.815 10.557 9.505-4.984h.868l9.505 4.984-1.815-10.557.268-.823 7.69-7.476-10.627-1.54-.702-.508-4.753-9.605-4.753 9.605-.68.493L16 16.652l.638-1.959 12.012-1.74 5.372-10.856h1.672l5.372 10.855 12.011 1.741.517 1.586-8.692 8.45 2.052 11.931-1.353.98-10.743-5.633-10.744 5.633-1.353-.98 2.052-11.931-6.141-5.97 3.198.51-3.192-.512c8.018-1.121 12.279-1.712 12.783-1.773a1.6 1.6 0 0 1 1.84 1.583l-.001 1.135v7.715h-1.862v-7.715z"/>
        </g>
    </g>
</svg>
