<svg xmlns="http://www.w3.org/2000/svg" viewBox="0 0 37.1 35.2" width="70" height="40">
  <title>t20</title>
  <g>
    <polygon points="18.5 34.5 33.1 23.9 27.6 6.7 9.5 6.7 3.9 23.9 18.5 34.5" style="fill: #00b865"/>
    <path d="M39.4,16.4l-.5-1.6L27.1,13.2,21.8,2.4H20.1L14.8,13.2,3,14.9l-.6,1.9h.7l13.6,2.2a1,1,0,0,1,.9,1,1.7,1.7,0,0,1-.5,1.2l-2.5,2.5a2.2,2.2,0,0,0,1.6,3.8h7.4V25.6H23a.8.8,0,0,1-.8-.8V20a.8.8,0,0,1,.8-.8h2a.8.8,0,0,1,.8.8v4.8a.8.8,0,0,1-.8.8h-.6v1.8H25a2.7,2.7,0,0,0,2.7-2.7V20A2.7,2.7,0,0,0,25,17.3H23A2.7,2.7,0,0,0,20.3,20v4.8a2.7,2.7,0,0,0,.1.8H16.1a.4.4,0,0,1-.3-.7l2.5-2.5a3.5,3.5,0,0,0,1-2.5A2.9,2.9,0,0,0,17,17.1L9.1,15.8l6.4-.9.7-.5,4.7-9.5,4.7,9.5.7.5,10.5,1.5-7.6,7.4-.3.8,1.8,10.5-9.4-4.9h-.9l-9.4,4.9,1.8-10.5-.3-.8L8.1,19.4,5,18.9,11,24.8,9,36.6l1.3,1L20.9,32l10.6,5.6,1.3-1-2-11.8Z" transform="translate(-2.4 -2.4)" style="fill: #fff"/>
  </g>
</svg>
