<svg xmlns="http://www.w3.org/2000/svg" width="70" height="40" viewBox="0 0 70 40">
    <g fill="none" fill-rule="evenodd">
        <g fill-rule="nonzero">
            <path fill="#FFF" d="M41.84 17.514l-2.022.743-2.564-6.042-1.895 7.68-2.436.896 3.79-15.36 5.126 12.083zm.014 5.543l3.359-1.234-1.596 5.388-1.763-4.154zm5.204-7.462l-2.518.926L48.842 2l2.058.625-3.842 12.97zM33.853 26L30.89 38l-4.57-9.233 2.032-.747 1.86 3.756 1.204-4.882 2.436-.895zm-7.823-2.674l-4.717 1.734 2.786-5.637 1.931 3.903zm-5.131 7.435l-2.277 4.608-1.922-.973 1.263-2.556 2.936-1.079z"/>
            <path fill="#00B865" d="M14 29.394l4.867-1.794.59 1.643-4.866 1.793L14 29.394zm7.3-2.69l4.868-1.794.59 1.643-4.867 1.793-.59-1.642zm7.302-2.69l4.867-1.794.59 1.643-4.867 1.793-.59-1.642zm7.3-2.69l4.868-1.794.59 1.643-4.867 1.793-.59-1.642zm7.301-2.69l4.868-1.794.59 1.643-4.867 1.793-.59-1.643zm7.301-2.69l4.867-1.794.59 1.642-4.866 1.794-.59-1.643z"/>
        </g>
    </g>
</svg>
