<svg xmlns="http://www.w3.org/2000/svg" width="70" height="40" viewBox="0 0 70 40">
    <g fill="none" fill-rule="evenodd">
        <path fill="#FFF" fill-rule="nonzero" d="M42.212 7.147c-2.21-.8-4.561-1.876-7.01-3.218-2.444 1.347-4.782 2.42-6.997 3.218a34.222 34.222 0 0 1-6.322 1.616c-.09 8.35 1.81 15.14 5.665 20.414a24.887 24.887 0 0 0 7.666 6.893c3.064-1.824 5.602-4.112 7.64-6.894 3.85-5.257 5.746-12.045 5.663-20.418a33.84 33.84 0 0 1-6.305-1.611zm8.094.883c.203 9.05-1.787 16.457-6 22.21-2.286 3.12-5.15 5.647-8.588 7.62-.312.18-.732.194-1 0-3.463-1.94-6.331-4.485-8.623-7.62-4.207-5.756-6.214-13.16-6-22.21a6.29 6.29 0 0 0 0-.794c.404-.082.696-.134.875-.159a32.476 32.476 0 0 0 6.624-1.623c2.182-.786 4.56-1.877 7.124-3.316.328-.184.637-.183.964 0 2.583 1.44 4.978 2.533 7.142 3.316a32.18 32.18 0 0 0 6.643 1.623c.147.02.41.073.787.159.03.356.048.621.052.794z"/>
        <path fill="#EB661C" d="M31.106 12.054l8.136 8.116 8.116-8.116 4.033 4.032-12.21 12.228-8.041-8.109-8.099 8.101-4.032-4.033z"/>
    </g>
</svg>
