<?xml version="1.0" encoding="UTF-8"?>
<svg width="70px" height="40px" viewBox="0 0 70 40" version="1.1" xmlns="http://www.w3.org/2000/svg" xmlns:xlink="http://www.w3.org/1999/xlink">
    <!-- Generator: Sketch 52.6 (67491) - http://www.bohemiancoding.com/sketch -->
    <title>logo / water/color@2x</title>
    <desc>Created with Sketch.</desc>
    <g id="logo-/-water/color" stroke="none" stroke-width="1" fill="none" fill-rule="evenodd">
        <path d="M31.309815,13.0743764 L26.6839247,20.6325681 C25.6805101,22.2299792 25.1515152,24.0405328 25.1515152,25.9375 C25.1515152,31.4028178 29.560832,35.8333333 35,35.8333333 C40.439168,35.8333333 44.8484848,31.4028178 44.8484848,25.9375 C44.8484848,24.0405328 44.3194899,22.2299792 43.3357083,20.6642268 L33.1547182,4.01498577 L35,1 L46.0005752,18.9737196 C47.2670791,20.9894431 48,23.3774686 48,25.9375 C48,33.1517195 42.1797017,39 35,39 C27.8202983,39 22,33.1517195 22,25.9375 C22,23.3774686 22.7329209,20.9894431 23.9994248,18.9737196 L31.3033472,7.0399207 L40.6708414,22.3547339 C41.3434958,23.4253072 41.6969697,24.6516676 41.6969697,25.9375 C41.6969697,29.6539161 38.6986342,32.6666667 35,32.6666667 C31.3013658,32.6666667 28.3030303,29.6539161 28.3030303,25.9375 C28.3030303,24.6484422 28.6581998,23.4224802 29.3684245,22.2914166 L31.3046071,19.127909 L33.1512129,22.1557833 L32.0529243,23.950265 C31.6412332,24.6062936 31.4545455,25.2465683 31.4545455,25.9375 C31.4545455,27.9050144 33.0418995,29.5 35,29.5 C36.9581005,29.5 38.5454545,27.9050144 38.5454545,25.9375 C38.5454545,25.2519412 38.3617033,24.6114065 38.0059746,24.0452411 L31.309815,13.0743764 Z" id="Path" fill="#00B7CA" fill-rule="nonzero"></path>
    </g>
</svg>
