<svg xmlns="http://www.w3.org/2000/svg" width="70" height="40" viewBox="0 0 70 40">
    <g fill="none" fill-rule="evenodd">
        <path fill="none" d="M0 0h70v40H0z"/>
        <path fill="#FF6700" d="M50.71 37H19.29A1.29 1.29 0 0 1 18 35.71V4.29c0-.712.578-1.29 1.29-1.29h31.42c.712 0 1.29.578 1.29 1.29v31.42A1.29 1.29 0 0 1 50.71 37z"/>
        <path fill="#FFF" d="M25.157 13.99c0-.14.115-.254.256-.254h10.14c.986 0 1.885.145 2.851 1.085.924.9 1.069 1.928 1.069 2.64v8.548c0 .14-.114.254-.256.254h-2.62a.255.255 0 0 1-.256-.254v-7.352c0-.797-.527-2.236-2.151-2.236h-5.646a.255.255 0 0 0-.255.253v9.335c0 .14-.115.254-.256.254h-2.62a.255.255 0 0 1-.256-.254V13.99zm5.853 4.667h2.61c.144 0 .26.111.26.248v7.11a.255.255 0 0 1-.26.248h-2.61a.255.255 0 0 1-.26-.248v-7.11c0-.137.116-.248.26-.248zm10.96-4.92h2.61c.145 0 .261.113.261.253V26.01c0 .14-.116.254-.26.254h-2.61a.258.258 0 0 1-.261-.254V13.99c0-.14.117-.254.26-.254z"/>
    </g>
</svg>
